<svg xmlns="http://www.w3.org/2000/svg" width="214" height="153" viewBox="0 0 214 153"><g><g><path fill="#de1f26" d="M59.34 63.731l22.348 2.125-.291 16.527-22.348-2.123z"/></g><g><path fill="#ccdc97" d="M.351 102.477l109.92-12.075 1.454 49.913L1.805 152.39z"/></g><g><path fill="#ef967c" d="M97.765 50.216l84.311 10.235-.466 32.3L97.3 82.513z"/></g><g><path fill="#ccdc97" d="M120.986 14.204l35.881 3.412-.466 26.537-35.88-3.41z"/></g><g><path fill="#ccdc97" d="M185.026 52.933l35.881 3.411-.466 26.538-35.88-3.41z"/></g><g><path fill="#b12025" d="M163.118 7.148l57.068-7.821 1.506 39.137-57.07 7.822z"/></g><g><path fill="#90be3d" d="M171.8 105.804l57.068-7.82 1.507 39.136-57.072 7.822z"/></g><g><path fill="#679b42" d="M121.422 99.105l37.809 6.676-1.188 33.144-37.81-6.676z"/></g></g></svg>