<svg xmlns="http://www.w3.org/2000/svg" width="115" height="72" viewBox="0 0 115 72"><g><g><path fill="#ccdc97" d="M6.764 68.704l-.023 1.218 87.515 1.744.158-7.924z"/></g><g><path fill="#679b42" d="M112.728 37.491l-5.852.331-.443 10.64L5.377 44.23l1.385 24.474h.001l87.651-4.963 19.738-1.118z"/></g><g><path fill="#90be3d" d="M1.25 30.063l-.583 13.97 4.712.199 101.053 4.229.444-10.638.14-3.333z"/></g><g><path fill="#de1f26" d="M34.945.78h-8.494l-6.14 10.161L13.895.78h-8.49L15.43 16.272 4.906 32.396h8.492l6.687-10.613 6.773 10.613h8.492L24.83 16.272z"/></g><g><path fill="#de1f26" d="M51.378 28.302a.53.53 0 0 0-.446-.014.504.504 0 0 0-.278.25.603.603 0 0 0-.051.38l.195.497 1.014-.394a5.981 5.981 0 0 0-.122-.347.642.642 0 0 0-.312-.372z"/></g><g><path fill="#de1f26" d="M40.633 4.123l.933-.884-1.285-.028z"/></g><g><path fill="#de1f26" d="M59.005.78h7.275L53.947 32.396h-5.555L35.746.78h7.72l7.95 20.868zM39.764 5.746l2.605-2.53-.184-.48-3.634-.1.214.55.922.014.518 1.33-.668.634zm1.03 2.507c.137.156.276.263.419.321l.327-.367a1.28 1.28 0 0 1-.54-.64c-.122-.319-.122-.617 0-.897.128-.277.353-.478.679-.605.329-.129.634-.138.906-.026.27.113.466.317.579.614.103.257.12.518.067.783l.499.087c.116-.316.1-.672-.053-1.07-.197-.5-.497-.83-.908-.99-.416-.164-.855-.156-1.314.024-.486.188-.817.488-.995.897-.177.415-.173.858.012 1.332.077.201.187.38.322.537zm.853 2.485c.08.201.186.38.32.536.137.157.276.264.419.322l.328-.368a1.253 1.253 0 0 1-.534-.64c-.126-.317-.126-.615 0-.896.122-.277.346-.478.674-.606.333-.129.632-.137.904-.025.272.113.467.317.58.614.102.257.126.518.067.783l.5.087c.117-.316.102-.672-.054-1.069-.196-.5-.496-.832-.907-.993-.417-.162-.852-.154-1.314.026-.486.19-.813.487-.991.897-.18.415-.177.857.008 1.332zm1.745 4.34l2.61-2.53-.19-.48-3.628-.1.214.55.922.015.514 1.328-.668.634zm1.447 3.72l3.11-1.212-.197-.514-1.85-.449 1.04-1.627-.214-.55-3.111 1.21.213.545 2.236-.868-.985 1.523.032.08 1.766.443-2.25.876zm.678 1.788c.146.382.352.643.607.784.26.141.548.148.87.022.289-.112.482-.294.578-.546.094-.253.083-.54-.045-.864a3.439 3.439 0 0 0-.188-.407l.69-.27.498 1.271.508-.199-.705-1.817-3.112 1.21c.006.015.017.036.025.066.007.03.022.07.043.124.017.053.038.104.053.152.089.244.148.403.178.474zm1.734 4.402l3.107-1.21-.763-1.96-.64.197c-.703.217-1.24.334-1.597.35a.967.967 0 0 1-.365-.03.438.438 0 0 1-.182-.1.36.36 0 0 1-.068-.155l-.548.197c.032.137.077.252.137.343.055.092.145.17.259.231.115.062.263.098.44.107.178.01.406-.006.68-.048a8.34 8.34 0 0 0 .96-.217l.614-.166.35.906-2.598 1.012zm1.604 2.618l-.506-1.298.807-.313.433 1.12.512-.198-.433-1.12.773-.3.485 1.251.513-.198-.702-1.799-3.111 1.21.72 1.843zm3.678 1.757c-.048-.125-.098-.252-.145-.384-.094-.258-.141-.389-.144-.394-.163-.428-.39-.707-.68-.842a1.084 1.084 0 0 0-.891-.02.956.956 0 0 0-.457.35 1.047 1.047 0 0 0-.193.532l-1.495-.334.236.614 1.348.278.173.45-1.072.418.209.542z"/></g><g><path fill="#de1f26" d="M47.034 20.595c.047-.124.034-.276-.034-.457a3.704 3.704 0 0 0-.171-.363l-.886.344c.045.15.083.268.116.353.149.383.377.514.684.395a.477.477 0 0 0 .29-.272z"/></g><g><path fill="#de1f26" d="M44.265 13.455l.933-.884-1.285-.027z"/></g><g><path fill="#de1f26" d="M67.81 32.397h7.228V.78H67.81z"/></g><g><path fill="#de1f26" d="M80.692 32.397h7.227V.78h-7.227z"/></g><g><path fill="#de1f26" d="M93.574 32.397h7.228V.78h-7.228z"/></g><g><path fill="#fff" d="M12.35 49.21a5.156 5.156 0 0 1-2.328-.533c-.716-.357-1.254-.809-1.61-1.359l.81-.98c.377.448.85.81 1.417 1.084.568.275 1.108.412 1.624.412.825 0 1.486-.206 1.983-.619.5-.412.749-.973.749-1.683 0-.596-.204-1.072-.616-1.427-.413-.354-.994-.533-1.736-.533h-1.394v-1.374h1.289c.526 0 .99-.188 1.39-.568.405-.4.602-.887.602-1.46 0-.618-.197-1.099-.601-1.443-.401-.344-.925-.516-1.58-.516-1.066 0-1.977.447-2.732 1.341l-.858-.962c.413-.55.95-.98 1.613-1.29a5.018 5.018 0 0 1 2.133-.463c1.063 0 1.913.283 2.542.85.629.566.944 1.35.944 2.346 0 .561-.15 1.091-.455 1.59a3.067 3.067 0 0 1-1.281 1.16v.051c.7.138 1.24.461 1.627.97.382.511.574 1.132.574 1.865 0 1.088-.4 1.947-1.204 2.578-.8.641-1.77.962-2.902.962z"/></g><g><path fill="#fff" d="M19.721 51.27h-1.377v-3.608h1.292c.376-.481.766-1.414 1.166-2.8.412-1.386.681-3.203.807-5.448l.123-2.405h7.08v10.653h1.63v3.609h-1.375v-2.234h-9.346zm3.418-12.887l-.156 2.147c-.113 1.777-.36 3.335-.735 4.676-.358 1.259-.687 2.078-1 2.456h6.104v-9.28z"/></g><g><path fill="#fff" d="M33.983 38.624c1.157-1.192 2.62-1.787 4.398-1.787 1.766 0 3.227.58 4.384 1.735 1.167 1.158 1.75 2.641 1.75 4.451 0 1.764-.583 3.241-1.75 4.433-1.171 1.168-2.632 1.753-4.384 1.753-1.752 0-3.22-.579-4.398-1.735-1.16-1.158-1.735-2.64-1.735-4.45 0-1.742.576-3.209 1.735-4.4zm1.133 7.835c.885.917 1.972 1.375 3.265 1.375 1.352 0 2.454-.458 3.298-1.375.859-.916 1.29-2.062 1.29-3.436 0-1.375-.438-2.52-1.323-3.437-.883-.916-1.971-1.375-3.265-1.375-1.317 0-2.412.453-3.282 1.357-.871.906-1.305 2.057-1.305 3.455 0 1.351.439 2.497 1.322 3.436z"/></g><g><path fill="#fff" d="M49.07 49.037h-1.46V37.009c.48 0 .99-.006 1.527-.017.541-.012 1.08-.018 1.616-.018 1.58 0 2.716.356 3.402 1.066.7.698 1.05 1.587 1.05 2.663 0 1.043-.378 1.937-1.137 2.68-.733.735-1.795 1.1-3.196 1.1a19.16 19.16 0 0 1-1.802-.068zm0-10.654v4.64c.72.057 1.305.086 1.752.086.881 0 1.574-.215 2.08-.644.504-.43.755-1.023.755-1.78 0-.743-.233-1.32-.693-1.726-.466-.406-1.156-.61-2.074-.61-.205 0-.812.012-1.82.034z"/></g><g><path fill="#fff" d="M59.087 38.624c1.157-1.192 2.622-1.787 4.398-1.787 1.766 0 3.227.58 4.384 1.735 1.168 1.158 1.75 2.641 1.75 4.451 0 1.764-.582 3.241-1.75 4.433-1.17 1.168-2.631 1.753-4.384 1.753-1.751 0-3.22-.579-4.398-1.735-1.158-1.158-1.735-2.64-1.735-4.45 0-1.742.577-3.209 1.735-4.4zm1.133 7.835c.886.917 1.972 1.375 3.265 1.375 1.354 0 2.455-.458 3.299-1.375.859-.916 1.29-2.062 1.29-3.436 0-1.375-.44-2.52-1.322-3.437-.885-.916-1.973-1.375-3.267-1.375-1.318 0-2.411.453-3.282 1.357-.87.906-1.305 2.057-1.305 3.455 0 1.351.44 2.497 1.322 3.436z"/></g><g><path fill="#fff" d="M72.716 37.026c1.592-.046 2.69-.069 3.296-.069 1.309 0 2.277.261 2.913.781.639.522.957 1.252.957 2.192 0 .7-.184 1.283-.55 1.752-.367.47-.871.813-1.513 1.031v.034c.778.127 1.385.436 1.83.93.44.492.659 1.132.659 1.922 0 1.146-.387 2.015-1.167 2.604-.78.59-1.846.885-3.195.885-1.317 0-2.397-.023-3.23-.069zm1.46 1.357v3.883h1.92c.68 0 1.233-.18 1.67-.54.434-.362.654-.852.654-1.47 0-1.283-.816-1.925-2.441-1.925-.342 0-.944.017-1.802.052zm0 5.172v4.09a19.79 19.79 0 0 0 1.855.068c.903 0 1.6-.186 2.086-.557.488-.373.73-.92.73-1.642 0-.63-.237-1.114-.71-1.452-.478-.338-1.15-.507-2.02-.507z"/></g><g><path fill="#fff" d="M83.676 49.037H82.2l5.17-12.097h1.258l5.169 12.097h-1.561l-1.546-3.643h-5.482zm6.444-5.018l-2.165-5.137-2.163 5.137z"/></g><g><path fill="#fff" d="M103.386 49.037h-1.46v-4.468h-2.253l-3.11 4.468h-1.649l3.333-4.726a3.903 3.903 0 0 1-1.718-1.314c-.433-.59-.653-1.275-.653-2.054 0-1.157.397-2.108 1.185-2.852.791-.756 1.961-1.134 3.508-1.134.046 0 .524.01 1.441.034.458.013.917.018 1.376.018zm-1.46-5.842v-4.812a45.56 45.56 0 0 0-1.632-.051c-.896 0-1.595.232-2.105.696-.511.463-.765 1.074-.765 1.83 0 .619.204 1.139.618 1.563.413.435.898.694 1.459.774z"/></g><g><path fill="#fff" d="M10.99 65.995H9.533V53.967h1.479l4.519 6.17 4.33-6.17h1.389v12.028h-1.46V56.27l-4.26 5.98h-.224L10.99 56.32z"/></g><g><path fill="#fff" d="M26.078 55.583c1.158-1.192 2.622-1.787 4.4-1.787 1.764 0 3.224.579 4.383 1.735 1.167 1.158 1.75 2.64 1.75 4.45 0 1.765-.583 3.243-1.75 4.434-1.17 1.168-2.632 1.753-4.384 1.753-1.752 0-3.219-.58-4.399-1.735-1.158-1.158-1.735-2.641-1.735-4.451 0-1.741.577-3.208 1.735-4.4zm1.133 7.836c.886.916 1.972 1.374 3.266 1.374 1.352 0 2.454-.458 3.298-1.374.86-.917 1.291-2.063 1.291-3.437 0-1.375-.44-2.52-1.323-3.437-.885-.916-1.972-1.375-3.266-1.375-1.319 0-2.412.453-3.283 1.359-.87.905-1.304 2.055-1.304 3.453 0 1.35.44 2.497 1.321 3.437z"/></g><g><path fill="#fff" d="M48.074 63.728l.583 1.099c-.401.413-.943.739-1.631.98a6.53 6.53 0 0 1-2.166.36c-1.796 0-3.271-.56-4.417-1.683-1.12-1.145-1.684-2.646-1.684-4.502 0-1.787.539-3.26 1.618-4.417 1.074-1.178 2.534-1.77 4.382-1.77 1.52 0 2.743.39 3.657 1.169l-.67 1.1c-.8-.596-1.793-.894-2.973-.894-1.303 0-2.378.447-3.21 1.34-.838.883-1.257 2.04-1.257 3.472s.432 2.595 1.289 3.489c.885.882 2.018 1.322 3.4 1.322 1.173 0 2.195-.355 3.079-1.065z"/></g><g><path fill="#fff" d="M52.867 53.967h-1.46v12.028h1.46zm.294 5.756l5.444 6.272h1.874l-5.635-6.375 5.36-5.653h-1.769z"/></g><g><path fill="#fff" d="M63.057 53.985c1.594-.046 2.693-.07 3.298-.07 1.309 0 2.277.262 2.912.783.638.52.958 1.252.958 2.19 0 .7-.184 1.284-.55 1.754-.367.47-.871.813-1.513 1.03v.035c.779.126 1.386.436 1.831.928.439.493.658 1.134.658 1.925 0 1.145-.387 2.013-1.166 2.603-.779.59-1.847.884-3.196.884-1.318 0-2.397-.023-3.232-.07zm1.461 1.358v3.883h1.922c.68 0 1.232-.181 1.669-.542.434-.361.654-.85.654-1.47 0-1.282-.816-1.924-2.442-1.924-.342 0-.942.017-1.803.053zm0 5.17v4.09c.467.047 1.09.069 1.856.069.903 0 1.602-.186 2.086-.557.486-.373.73-.92.73-1.642 0-.63-.237-1.114-.711-1.452-.477-.338-1.149-.507-2.021-.507z"/></g><g><path fill="#fff" d="M74.02 65.995h-1.477l5.17-12.096h1.257l5.17 12.096h-1.562l-1.546-3.643h-5.48zm6.444-5.017l-2.167-5.137-2.163 5.137z"/></g></g></svg>