<svg xmlns="http://www.w3.org/2000/svg" width="20" height="20" viewBox="0 0 20 20"><g><g><path fill="#ccdc97" d="M5.035 9.82a5.02 5.02 0 0 0 10.038 0 5.027 5.027 0 0 0-5.024-5.024c-2.768 0-5.014 2.257-5.014 5.024zM15.235 0a4.649 4.649 0 0 1 4.645 4.644v10.363a4.657 4.657 0 0 1-4.644 4.645H4.872c-2.55 0-4.644-2.095-4.644-4.645V4.644A4.656 4.656 0 0 1 4.872 0zM4.873 1.16a3.486 3.486 0 0 0-3.483 3.484v10.363a3.487 3.487 0 0 0 3.483 3.484h10.364a3.487 3.487 0 0 0 3.483-3.484V4.644a3.486 3.486 0 0 0-3.483-3.483zm11.394 1.466a1.02 1.02 0 1 1 0 2.04 1.02 1.02 0 1 1 0-2.04zm.12 7.194a6.331 6.331 0 0 1-6.337 6.338A6.338 6.338 0 0 1 3.71 9.82a6.345 6.345 0 0 1 6.338-6.337 6.338 6.338 0 0 1 6.337 6.337z"/></g></g></svg>