<svg xmlns="http://www.w3.org/2000/svg" width="21" height="13" viewBox="0 0 21 13"><g><g><path fill="#ccdc97" d="M20.434 1.74c-.273-.202-1.253-.202-2.223-.202-.99.02-1.98.02-2.213.11-.212.082-.687 1.235-1.303 2.416-.708 1.334-1.566 2.628-2.113 2.607-.717 0-.544-2.193-.494-3.82.01-1.06-.162-1.404-.314-1.495C11.4 1.094 10.37.842 10.37.842s-3.093-.233-3.527 1.1c.596.08 1.607-.101 1.213 4.03-.03.205-.476 1.902-1.91-.392-.364-.576-1.738-4.022-2.223-4.042C2.336 1.508.76 1.437.215 1.74c-.516.304.687 2.668 2.718 5.84 1.647 2.608 3.395 4.629 6.426 5.134.576.06 2.052.12 2.527-.101.313-.151-.08-2.394 1-2.617.475-.091 2.323 2.345 3.021 2.617.425.172 1.354.242 2.304.202 1.031-.03 2.202.1 2.313-.606.254-1.546-3.12-3.568-3.212-4.517-.08-.687 1.233-1.95 1.9-2.921.827-1.172 1.738-2.586 1.222-3.031z"/></g></g></svg>